<!--?xml version="1.0" standalone="no"?-->
              <svg id="sw-js-blob-svg" viewBox="0 0 100 100" xmlns="http://www.w3.org/2000/svg" version="1.1">
                    <defs> 
                        <linearGradient id="sw-gradient" x1="0" x2="1" y1="1" y2="0">
                            <stop id="stop1" stop-color="rgba(248, 117, 55, 1)" offset="0%"></stop>
                            <stop id="stop2" stop-color="rgba(251, 168, 31, 1)" offset="100%"></stop>
                        </linearGradient>
                    </defs>
                <path fill="url(#sw-gradient)" d="M18,-21.3C23.3,-17,27.5,-11.3,31,-3.6C34.6,4.1,37.5,13.7,34.5,20.9C31.5,28.1,22.6,32.8,13.2,36.2C3.8,39.6,-6.1,41.7,-13,38.1C-19.9,34.6,-23.9,25.3,-26.6,17.1C-29.3,8.9,-30.7,1.6,-30.4,-6.2C-30,-14,-27.9,-22.4,-22.6,-26.8C-17.2,-31.1,-8.6,-31.4,-1.1,-30C6.3,-28.7,12.7,-25.7,18,-21.3Z" width="100%" height="100%" transform="translate(50 50)" stroke-width="0" style="transition: all 0.3s ease 0s;" stroke="url(#sw-gradient)"></path>
              </svg>